<svg width="14" height="15" viewBox="0 0 14 15" fill="none" xmlns="http://www.w3.org/2000/svg">
<path d="M14 7.47233C14.0016 7.67741 13.9392 7.87789 13.8216 8.04591C13.704 8.21392 13.537 8.34112 13.3437 8.40983L9.37873 9.8517L7.93748 13.8161C7.86644 14.0075 7.73854 14.1725 7.57095 14.2891C7.40336 14.4056 7.20411 14.4681 6.99998 14.4681C6.79584 14.4681 6.59659 14.4056 6.42901 14.2891C6.26142 14.1725 6.13351 14.0075 6.06248 13.8161L4.62123 9.85108L0.656226 8.40983C0.464849 8.33879 0.299796 8.21089 0.183241 8.0433C0.0666856 7.87571 0.00421143 7.67646 0.00421143 7.47233C0.00421143 7.26819 0.0666856 7.06895 0.183241 6.90136C0.299796 6.73377 0.464849 6.60586 0.656226 6.53483L4.62123 5.09358L6.06248 1.12858C6.13351 0.9372 6.26142 0.772147 6.42901 0.655592C6.59659 0.539037 6.79584 0.476562 6.99998 0.476562C7.20411 0.476562 7.40336 0.539037 7.57095 0.655592C7.73854 0.772147 7.86644 0.9372 7.93748 1.12858L9.37935 5.09358L13.3437 6.53483C13.537 6.60353 13.704 6.73073 13.8216 6.89875C13.9392 7.06676 14.0016 7.26724 14 7.47233Z" fill="#393838"/>
</svg>
