<svg width="63" height="64" viewBox="0 0 63 64" fill="none" xmlns="http://www.w3.org/2000/svg">
<g clip-path="url(#clip0_4012_209)">
<path d="M31.5 0.472656C14.1146 0.472656 0 14.5873 0 31.9727C0 49.358 14.1146 63.4727 31.5 63.4727C48.8854 63.4727 63 49.358 63 31.9727C63 14.5873 48.8854 0.472656 31.5 0.472656ZM31.5 2.44141C39.0364 2.44141 45.8903 5.28166 51.1061 9.92266H11.8913C17.2845 5.1014 24.2659 2.4378 31.5 2.44141ZM12.6368 11.8914H50.3633L31.5 49.6205L12.6368 11.8914ZM9.45 12.3639V51.5814C4.62875 46.1882 1.96514 39.2067 1.96875 31.9727C1.96875 24.4389 4.809 17.585 9.45 12.3692V12.3639ZM53.55 12.3639C58.3713 17.7572 61.0349 24.7386 61.0312 31.9727C61.0312 39.509 58.191 46.3629 53.55 51.5788V12.3639ZM11.4187 13.8602L30.5156 52.0539H11.4187V13.8602ZM51.5812 13.8602V52.0539H32.4844L51.5812 13.8602ZM11.8991 54.0227H51.1061C45.7136 58.8433 38.7332 61.5069 31.5 61.5039C24.2678 61.5062 17.291 58.8427 11.8991 54.0227Z" fill="black" fill-opacity="0.5"/>
</g>
<defs>
<clipPath id="clip0_4012_209">
<rect width="63" height="63" fill="white" transform="translate(0 0.472656)"/>
</clipPath>
</defs>
</svg>
