<svg width="234" height="46" viewBox="0 0 234 46" fill="none" xmlns="http://www.w3.org/2000/svg">
<g clip-path="url(#clip0_110_497)">
<path d="M136.287 13.6104C137.779 13.6104 139.152 13.9836 140.406 14.7299C141.66 15.4464 142.645 16.4465 143.362 17.7301C144.108 18.9839 144.481 20.3572 144.481 21.8498V36.0001H141.436V21.8498C141.436 20.4169 140.929 19.2078 139.914 18.2227C138.899 17.2077 137.689 16.7002 136.287 16.7002C134.854 16.7002 133.63 17.2077 132.615 18.2227C131.629 19.2078 131.137 20.402 131.137 21.805V21.8498V36.0001H128.047V21.805C128.047 20.402 127.54 19.2078 126.525 18.2227C125.509 17.2077 124.3 16.7002 122.898 16.7002C121.494 16.7002 120.285 17.2226 119.27 18.2675C118.255 19.2825 117.748 20.5064 117.748 21.9394V36.0001H114.703V14.1926H117.748V15.9389C118.345 15.2225 119.106 14.6553 120.032 14.2373C120.987 13.8194 121.942 13.6104 122.898 13.6104C124.241 13.6104 125.495 13.9239 126.659 14.5508C127.853 15.1777 128.823 16.0136 129.57 17.0584C130.346 16.0136 131.316 15.1777 132.48 14.5508C133.674 13.9239 134.943 13.6104 136.287 13.6104ZM151.72 26.4621C152.078 28.3726 153.018 29.9699 154.541 31.2535C156.063 32.5073 157.81 33.1343 159.78 33.1343C161.243 33.1343 162.586 32.791 163.81 32.1043C165.034 31.4176 166.019 30.4773 166.765 29.2832L169.407 30.8057C168.392 32.4476 167.034 33.7612 165.332 34.7463C163.631 35.7315 161.78 36.224 159.78 36.224C157.75 36.224 155.869 35.7165 154.138 34.7015C152.406 33.6866 151.033 32.3132 150.018 30.5818C149.003 28.8504 148.495 26.9697 148.495 24.9396C148.495 22.8798 149.003 20.999 150.018 19.2974C151.033 17.5659 152.406 16.1927 154.138 15.1777C155.869 14.1627 157.75 13.6552 159.78 13.6552C161.81 13.6552 163.691 14.1627 165.422 15.1777C167.154 16.1927 168.527 17.5659 169.542 19.2974C170.557 20.999 171.064 22.8798 171.064 24.9396C171.064 25.2979 171.034 25.8054 170.975 26.4621H151.72ZM159.78 16.7002C158.466 16.7002 157.183 17.0137 155.929 17.6406C154.675 18.2376 153.66 19.0735 152.884 20.1482C152.108 21.1931 151.72 22.3275 151.72 23.5515H167.84C167.84 22.3275 167.452 21.1931 166.676 20.1482C165.9 19.0735 164.885 18.2376 163.631 17.6406C162.407 17.0137 161.123 16.7002 159.78 16.7002ZM196.912 36.0001H193.912V31.8357C191.732 34.7613 188.941 36.224 185.538 36.224C183.478 36.224 181.582 35.7165 179.851 34.7015C178.119 33.6866 176.746 32.3132 175.731 30.5818C174.716 28.8204 174.209 26.9249 174.209 24.8948C174.209 22.8648 174.716 20.9841 175.731 19.2526C176.746 17.4913 178.119 16.1031 179.851 15.0881C181.582 14.0731 183.478 13.5656 185.538 13.5656C189.06 13.5656 191.852 14.9538 193.912 17.7301V6.2666H196.912V36.0001ZM193.822 24.8948C193.822 23.4021 193.449 22.0289 192.703 20.7751C191.956 19.5213 190.941 18.5212 189.658 17.7749C188.404 17.0286 187.031 16.6554 185.538 16.6554C184.045 16.6554 182.672 17.0286 181.418 17.7749C180.164 18.5212 179.164 19.5213 178.418 20.7751C177.672 22.0289 177.298 23.4021 177.298 24.8948C177.298 26.3876 177.672 27.7757 178.418 29.0593C179.164 30.3132 180.164 31.3133 181.418 32.0595C182.672 32.8058 184.045 33.179 185.538 33.179C187.031 33.179 188.404 32.8058 189.658 32.0595C190.941 31.3133 191.956 30.3132 192.703 29.0593C193.449 27.7757 193.822 26.3876 193.822 24.8948ZM203.39 7.38609C203.928 7.38609 204.391 7.58012 204.779 7.96822C205.167 8.3563 205.361 8.81903 205.361 9.35638C205.361 9.92358 205.167 10.4012 204.779 10.7893C204.391 11.1774 203.928 11.3715 203.39 11.3715C202.823 11.3715 202.346 11.1774 201.958 10.7893C201.57 10.4012 201.375 9.92358 201.375 9.35638C201.375 8.81903 201.57 8.3563 201.958 7.96822C202.346 7.58012 202.823 7.38609 203.39 7.38609ZM204.913 13.6104V36.0001H201.823V13.6104H204.913ZM230.67 14.1926V36.0001H227.58V31.8804C225.52 34.7761 222.773 36.224 219.34 36.224C217.28 36.224 215.384 35.7315 213.653 34.7463C211.921 33.7314 210.548 32.358 209.533 30.6266C208.548 28.8952 208.056 27.0145 208.056 24.9844C208.056 22.9245 208.548 21.0289 209.533 19.2974C210.548 17.5659 211.921 16.2076 213.653 15.2225C215.384 14.2075 217.28 13.7 219.34 13.7C221.459 13.7 223.191 14.1478 224.535 15.0434C225.908 15.9091 226.922 16.8495 227.58 17.8645V14.1926H230.67ZM219.34 33.179C220.832 33.179 222.206 32.8208 223.46 32.1043C224.714 31.3581 225.699 30.3579 226.416 29.1041C227.161 27.8503 227.535 26.4771 227.535 24.9844C227.535 23.4917 227.161 22.1185 226.416 20.8647C225.699 19.581 224.714 18.5809 223.46 17.8645C222.206 17.1181 220.832 16.745 219.34 16.745C217.847 16.745 216.459 17.1181 215.176 17.8645C213.922 18.5809 212.922 19.581 212.175 20.8647C211.459 22.1185 211.101 23.4917 211.101 24.9844C211.101 26.4771 211.459 27.8503 212.175 29.1041C212.922 30.3579 213.922 31.3581 215.176 32.1043C216.459 32.8208 217.847 33.179 219.34 33.179Z" fill="#43F227"/>
<path d="M58.1116 34.4335C63.2809 34.4335 67.4714 30.243 67.4714 25.0737C67.4714 19.9044 63.2809 15.7139 58.1116 15.7139C52.9424 15.7139 48.7518 19.9044 48.7518 25.0737C48.7518 30.243 52.9424 34.4335 58.1116 34.4335Z" stroke="white" stroke-width="3.13456"/>
<path d="M21.8656 32.2386C20.7909 33.4924 19.5072 34.4776 18.0145 35.194C16.5518 35.8807 14.9695 36.224 13.2679 36.224C11.2379 36.224 9.35719 35.7164 7.62572 34.7015C5.89426 33.6865 4.52101 32.3132 3.50602 30.5818C2.49103 28.8504 1.98352 26.9696 1.98352 24.9396C1.98352 22.9095 2.49103 21.0288 3.50602 19.2973C4.52101 17.5659 5.89426 16.1926 7.62572 15.1776C9.35719 14.1626 11.2379 13.6551 13.2679 13.6551C14.9695 13.6551 16.5518 14.0134 18.0145 14.7298C19.5072 15.4165 20.7909 16.3867 21.8656 17.6405L19.134 19.2078C18.3877 18.4316 17.507 17.8345 16.492 17.4166C15.4771 16.9688 14.4023 16.7449 13.2679 16.7449C11.7753 16.7449 10.402 17.1181 9.14822 17.8644C7.8944 18.5809 6.89432 19.566 6.14801 20.8198C5.40169 22.0737 5.02852 23.4468 5.02852 24.9396C5.02852 26.4323 5.40169 27.8054 6.14801 29.0593C6.89432 30.3131 7.8944 31.3132 9.14822 32.0595C10.402 32.776 11.7753 33.1342 13.2679 33.1342C14.4023 33.1342 15.4771 32.9253 16.492 32.5073C17.507 32.0595 18.3877 31.4476 19.134 30.6713L21.8656 32.2386ZM44.9008 13.6104V35.8209C44.9008 37.5823 44.4678 39.2092 43.6022 40.7019C42.7364 42.1946 41.5571 43.3737 40.0646 44.2395C38.5719 45.1053 36.9448 45.5381 35.1837 45.5381C33.482 45.5381 31.9148 45.1351 30.4818 44.329C29.0489 43.523 27.8846 42.4333 26.989 41.0601L29.6758 39.5376C30.2727 40.4332 31.0489 41.1497 32.0043 41.687C32.9895 42.2244 34.0492 42.4931 35.1837 42.4931C36.3777 42.4931 37.4822 42.1946 38.4973 41.5975C39.542 41.0004 40.3631 40.1796 40.9602 39.1346C41.5571 38.1197 41.8558 37.015 41.8558 35.8209V33.4476C40.9602 34.2834 39.945 34.9404 38.8108 35.4179C37.6763 35.8657 36.4673 36.0896 35.1837 36.0896C33.452 36.0896 31.84 35.6716 30.3475 34.8358C28.8845 33.97 27.7055 32.8207 26.8099 31.3878C25.9441 29.9549 25.4963 28.3726 25.4665 26.6412V13.6104H28.5115V26.3725C28.5115 27.5665 28.81 28.686 29.4071 29.731C30.004 30.7459 30.8101 31.5519 31.8252 32.149C32.8699 32.7462 33.9894 33.0446 35.1837 33.0446C36.3777 33.0446 37.4822 32.7462 38.4973 32.149C39.542 31.5519 40.3631 30.7459 40.9602 29.731C41.5571 28.686 41.8558 27.5665 41.8558 26.3725V13.6104H44.9008Z" fill="white"/>
<mask id="mask0_110_497" style="mask-type:luminance" maskUnits="userSpaceOnUse" x="1" y="13" width="45" height="33">
<path d="M45.1693 13.3877H1.73328V45.8527H45.1693V13.3877Z" fill="white"/>
<path d="M21.8654 32.2396C20.7907 33.4934 19.5071 34.4785 18.0144 35.195C16.5516 35.8817 14.9694 36.2249 13.2678 36.2249C11.2378 36.2249 9.35706 35.7174 7.6256 34.7024C5.89414 33.6875 4.52089 32.3141 3.5059 30.5827C2.49091 28.8513 1.9834 26.9706 1.9834 24.9405C1.9834 22.9105 2.49091 21.0298 3.5059 19.2983C4.52089 17.5668 5.89414 16.1936 7.6256 15.1786C9.35706 14.1636 11.2378 13.6561 13.2678 13.6561C14.9694 13.6561 16.5516 14.0143 18.0144 14.7308C19.5071 15.4174 20.7907 16.3877 21.8654 17.6415L19.1339 19.2088C18.3876 18.4326 17.5069 17.8355 16.4919 17.4176C15.4769 16.9698 14.4022 16.7459 13.2678 16.7459C11.7752 16.7459 10.4019 17.1191 9.1481 17.8654C7.89428 18.5818 6.8942 19.567 6.14788 20.8208C5.40157 22.0746 5.0284 23.4478 5.0284 24.9405C5.0284 26.4333 5.40157 27.8064 6.14788 29.0602C6.8942 30.3141 7.89428 31.3142 9.1481 32.0605C10.4019 32.7769 11.7752 33.1352 13.2678 33.1352C14.4022 33.1352 15.4769 32.9263 16.4919 32.5083C17.5069 32.0605 18.3876 31.4485 19.1339 30.6723L21.8654 32.2396ZM44.9007 13.6113V35.8219C44.9007 37.5833 44.4676 39.2102 43.6021 40.7029C42.7362 42.1956 41.557 43.3746 40.0645 44.2405C38.5718 45.1063 36.9447 45.5391 35.1835 45.5391C33.4819 45.5391 31.9146 45.136 30.4817 44.33C29.0488 43.524 27.8845 42.4343 26.9889 41.0611L29.6757 39.5386C30.2726 40.4342 31.0488 41.1507 32.0042 41.688C32.9893 42.2254 34.049 42.4941 35.1835 42.4941C36.3776 42.4941 37.4821 42.1956 38.4972 41.5985C39.5419 41.0013 40.3629 40.1805 40.9601 39.1356C41.557 38.1207 41.8557 37.016 41.8557 35.8219V33.4486C40.9601 34.2844 39.9449 34.9413 38.8107 35.4189C37.6762 35.8667 36.4671 36.0906 35.1835 36.0906C33.4519 36.0906 31.8399 35.6726 30.3474 34.8368C28.8844 33.971 27.7054 32.8217 26.8098 31.3888C25.944 29.9558 25.4962 28.3735 25.4664 26.6422V13.6113H28.5114V26.3735C28.5114 27.5675 28.8099 28.687 29.407 29.7319C30.0039 30.7469 30.8099 31.5529 31.8251 32.15C32.8698 32.7471 33.9893 33.0456 35.1835 33.0456C36.3776 33.0456 37.4821 32.7471 38.4972 32.15C39.5419 31.5529 40.3629 30.7469 40.9601 29.7319C41.557 28.687 41.8557 27.5675 41.8557 26.3735V13.6113H44.9007Z" fill="black"/>
</mask>
<g mask="url(#mask0_110_497)">
<path d="M21.8653 32.2389L22.0353 32.3846L22.2113 32.1793L21.9768 32.0447L21.8653 32.2389ZM18.0143 35.1943L18.1095 35.3969L18.1112 35.396L18.0143 35.1943ZM18.0143 14.7301L17.9158 14.9312L17.9183 14.9324L17.9208 14.9335L18.0143 14.7301ZM21.8653 17.6408L21.9768 17.835L22.2113 17.7004L22.0353 17.495L21.8653 17.6408ZM19.1338 19.208L18.9724 19.3632L19.0936 19.4893L19.2452 19.4022L19.1338 19.208ZM16.4918 17.4169L16.4015 17.6217L16.404 17.6228L16.4066 17.6239L16.4918 17.4169ZM9.148 17.8647L9.25908 18.059L9.2608 18.0581L9.26252 18.0571L9.148 17.8647ZM9.148 32.0597L9.03348 32.2521L9.03518 32.2532L9.0369 32.2541L9.148 32.0597ZM16.4918 32.5075L16.5771 32.7146L16.5796 32.7135L16.5822 32.7124L16.4918 32.5075ZM19.1338 30.6716L19.2452 30.4775L19.0936 30.3904L18.9724 30.5164L19.1338 30.6716ZM21.6953 32.0931C20.6409 33.3232 19.3822 34.2893 17.9174 34.9923L18.1112 35.396C19.6318 34.6664 20.9404 33.662 22.0353 32.3846L21.6953 32.0931ZM17.9192 34.9917C16.4877 35.6636 14.9382 36.0003 13.2677 36.0003V36.4481C15.0004 36.4481 16.6153 36.0984 18.1095 35.3969L17.9192 34.9917ZM13.2677 36.0003C11.277 36.0003 9.43544 35.5033 7.73873 34.5085L7.51228 34.895C9.27849 35.9303 11.1984 36.4481 13.2677 36.4481V36.0003ZM7.73873 34.5085C6.04029 33.5128 4.69458 32.1672 3.69895 30.4687L3.31264 30.6953C4.347 32.4598 5.74777 33.8605 7.51228 34.895L7.73873 34.5085ZM3.69895 30.4687C2.70431 28.772 2.20719 26.9305 2.20719 24.9398H1.7594C1.7594 27.0091 2.27728 28.929 3.31264 30.6953L3.69895 30.4687ZM2.20719 24.9398C2.20719 22.9491 2.70431 21.1075 3.69895 19.4108L3.31264 19.1844C2.27728 20.9506 1.7594 22.8705 1.7594 24.9398H2.20719ZM3.69895 19.4108C4.69458 17.7124 6.04029 16.3667 7.73873 15.3711L7.51228 14.9847C5.74777 16.0191 4.347 17.4199 3.31264 19.1844L3.69895 19.4108ZM7.73873 15.3711C9.43544 14.3764 11.277 13.8793 13.2677 13.8793V13.4315C11.1984 13.4315 9.27849 13.9494 7.51228 14.9847L7.73873 15.3711ZM13.2677 13.8793C14.9367 13.8793 16.4851 14.2304 17.9158 14.9312L18.1128 14.529C16.618 13.7969 15.0019 13.4315 13.2677 13.4315V13.8793ZM17.9208 14.9335C19.3839 15.6065 20.6415 16.557 21.6953 17.7865L22.0353 17.495C20.9397 16.2168 19.63 15.2269 18.1079 14.5267L17.9208 14.9335ZM21.7539 17.4466L19.0224 19.0138L19.2452 19.4022L21.9768 17.835L21.7539 17.4466ZM19.2952 19.0529C18.5269 18.2539 17.6202 17.6394 16.5771 17.2098L16.4066 17.6239C17.3934 18.0303 18.248 18.6099 18.9724 19.3632L19.2952 19.0529ZM16.5822 17.212C15.5381 16.7514 14.4325 16.5213 13.2677 16.5213V16.9691C14.3717 16.9691 15.4156 17.1868 16.4015 17.6217L16.5822 17.212ZM13.2677 16.5213C11.7357 16.5213 10.3228 16.9048 9.03348 17.6723L9.26252 18.0571C10.4809 17.3318 11.8144 16.9691 13.2677 16.9691V16.5213ZM9.0369 17.6702C7.74918 18.4061 6.72125 19.4189 5.95539 20.7056L6.34018 20.9346C7.06695 19.7136 8.03917 18.7561 9.25908 18.059L9.0369 17.6702ZM5.95539 20.7056C5.18796 21.9949 4.8044 23.4079 4.8044 24.9398H5.25219C5.25219 23.4865 5.61495 22.153 6.34018 20.9346L5.95539 20.7056ZM4.8044 24.9398C4.8044 26.4717 5.18796 27.8847 5.95539 29.1739L6.34018 28.9449C5.61495 27.7267 5.25219 26.3931 5.25219 24.9398H4.8044ZM5.95539 29.1739C6.72078 30.4598 7.74761 31.4868 9.03348 32.2521L9.26252 31.8674C8.04074 31.14 7.06742 30.1667 6.34018 28.9449L5.95539 29.1739ZM9.0369 32.2541C10.3257 32.9905 11.7375 33.3583 13.2677 33.3583V32.9106C11.8126 32.9106 10.4779 32.5617 9.25908 31.8654L9.0369 32.2541ZM13.2677 33.3583C14.4304 33.3583 15.5341 33.1441 16.5771 32.7146L16.4066 32.3004C15.4195 32.7068 14.3739 32.9106 13.2677 32.9106V33.3583ZM16.5822 32.7124C17.623 32.2532 18.5281 31.6245 19.2952 30.8267L18.9724 30.5164C18.2469 31.271 17.3906 31.8663 16.4015 32.3027L16.5822 32.7124ZM19.0224 30.8657L21.7539 32.433L21.9768 32.0447L19.2452 30.4775L19.0224 30.8657ZM44.9006 13.6106H45.1245V13.3867H44.9006V13.6106ZM26.9888 41.0604L26.8784 40.8656L26.6711 40.9832L26.8012 41.1826L26.9888 41.0604ZM29.6756 39.5379L29.8618 39.4136L29.7463 39.2403L29.5652 39.3431L29.6756 39.5379ZM32.0041 41.6873L31.8942 41.8826L31.8968 41.8839L32.0041 41.6873ZM38.4971 41.5978L38.3861 41.4034L38.3836 41.4048L38.4971 41.5978ZM40.96 39.1349L40.767 39.0214L40.7654 39.0238L40.96 39.1349ZM41.8556 33.4479H42.0795V32.9327L41.7026 33.2842L41.8556 33.4479ZM38.8106 35.4182L38.8927 35.6264L38.895 35.6255L38.8974 35.6246L38.8106 35.4182ZM30.3473 34.8361L30.2331 35.0286L30.2355 35.0302L30.2378 35.0313L30.3473 34.8361ZM26.8097 31.3881L26.618 31.5038L26.6189 31.5052L26.6198 31.5067L26.8097 31.3881ZM25.4663 26.6414H25.2424V26.6435V26.6452L25.4663 26.6414ZM25.4663 13.6106V13.3867H25.2424V13.6106H25.4663ZM28.5113 13.6106H28.7352V13.3867H28.5113V13.6106ZM29.4069 29.7312L29.2123 29.8423L29.2139 29.8447L29.4069 29.7312ZM31.825 32.1493L31.7115 32.3423L31.7139 32.3436L31.825 32.1493ZM38.4971 32.1493L38.3861 31.955L38.3836 31.9563L38.4971 32.1493ZM40.96 29.7312L41.153 29.8447L41.1543 29.8423L40.96 29.7312ZM41.8556 13.6106V13.3867H41.6317V13.6106H41.8556ZM44.6767 13.6106V35.8212H45.1245V13.6106H44.6767ZM44.6767 35.8212C44.6767 37.5439 44.2537 39.132 43.4083 40.5898L43.7956 40.8146C44.6816 39.2869 45.1245 37.6211 45.1245 35.8212H44.6767ZM43.4083 40.5898C42.562 42.0487 41.4109 43.2 39.952 44.0461L40.1766 44.4334C41.7031 43.5481 42.9103 42.3409 43.7956 40.8146L43.4083 40.5898ZM39.952 44.0461C38.4942 44.8915 36.9061 45.3144 35.1834 45.3144V45.7622C36.9833 45.7622 38.6491 45.3194 40.1766 44.4334L39.952 44.0461ZM35.1834 45.3144C33.5188 45.3144 31.9895 44.9206 30.5913 44.1341L30.3717 44.5243C31.8393 45.35 33.4446 45.7622 35.1834 45.7622V45.3144ZM30.5913 44.1341C29.1897 43.3457 28.0521 42.2811 27.1762 40.9382L26.8012 41.1826C27.7165 42.5863 28.9076 43.7008 30.3717 44.5243L30.5913 44.1341ZM27.0992 41.2552L29.7859 39.7327L29.5652 39.3431L26.8784 40.8656L27.0992 41.2552ZM29.4893 39.6622C30.1061 40.5875 30.9088 41.3282 31.8942 41.8823L32.1138 41.4921C31.1887 40.9717 30.4388 40.2794 29.8618 39.4136L29.4893 39.6622ZM31.8968 41.8839C32.9151 42.4394 34.012 42.7172 35.1834 42.7172V42.2694C34.0859 42.2694 33.0631 42.01 32.1113 41.4907L31.8968 41.8839ZM35.1834 42.7172C36.4169 42.7172 37.5605 42.4083 38.6106 41.7908L38.3836 41.4048C37.4034 41.9813 36.3381 42.2694 35.1834 42.2694V42.7172ZM38.6082 41.7921C39.6878 41.1753 40.5375 40.3256 41.1543 39.2459L40.7654 39.0238C40.1882 40.0338 39.396 40.8262 38.3861 41.4034L38.6082 41.7921ZM41.153 39.2484C41.7705 38.1986 42.0795 37.0547 42.0795 35.8212H41.6317C41.6317 36.9761 41.3435 38.0412 40.767 39.0214L41.153 39.2484ZM42.0795 35.8212V33.4479H41.6317V35.8212H42.0795ZM41.7026 33.2842C40.8265 34.1019 39.8338 34.7443 38.7237 35.2118L38.8974 35.6246C40.0559 35.1368 41.0934 34.4655 42.0083 33.6116L41.7026 33.2842ZM38.7284 35.21C37.6214 35.6468 36.4404 35.866 35.1834 35.866V36.3138C36.4937 36.3138 37.7307 36.0852 38.8927 35.6264L38.7284 35.21ZM35.1834 35.866C33.4896 35.866 31.9154 35.4576 30.4565 34.6406L30.2378 35.0313C31.7643 35.8861 33.414 36.3138 35.1834 36.3138V35.866ZM30.4612 34.6433C29.0292 33.7958 27.8759 32.6717 26.9995 31.2694L26.6198 31.5067C27.5344 32.9701 28.7397 34.1449 30.2331 35.0286L30.4612 34.6433ZM27.0013 31.2723C26.1566 29.8743 25.7193 28.331 25.6902 26.6376L25.2424 26.6452C25.2729 28.4149 25.7312 30.0359 26.618 31.5038L27.0013 31.2723ZM25.6902 26.6414V13.6106H25.2424V26.6414H25.6902ZM25.4663 13.8345H28.5113V13.3867H25.4663V13.8345ZM28.2874 13.6106V26.3728H28.7352V13.6106H28.2874ZM28.2874 26.3728C28.2874 27.6062 28.5962 28.7638 29.2123 29.8423L29.6012 29.6202C29.0234 28.6088 28.7352 27.5276 28.7352 26.3728H28.2874ZM29.2139 29.8447C29.8303 30.8926 30.6636 31.7259 31.7115 32.3423L31.9385 31.9563C30.9563 31.3784 30.1775 30.5999 29.5999 29.6177L29.2139 29.8447ZM31.7139 32.3436C32.7922 32.9598 33.95 33.2688 35.1834 33.2688V32.821C34.0286 32.821 32.9474 32.5328 31.936 31.955L31.7139 32.3436ZM35.1834 33.2688C36.4169 33.2688 37.5605 32.9598 38.6106 32.3423L38.3836 31.9563C37.4034 32.5328 36.3381 32.821 35.1834 32.821V33.2688ZM38.6082 32.3436C39.686 31.7277 40.5357 30.8941 41.153 29.8447L40.767 29.6177C40.19 30.5984 39.3976 31.3766 38.3861 31.955L38.6082 32.3436ZM41.1543 29.8423C41.7705 28.7638 42.0795 27.6062 42.0795 26.3728H41.6317C41.6317 27.5276 41.3433 28.6088 40.7654 29.6202L41.1543 29.8423ZM42.0795 26.3728V13.6106H41.6317V26.3728H42.0795ZM41.8556 13.8345H44.9006V13.3867H41.8556V13.8345Z" fill="white"/>
</g>
<path d="M74.5714 26.4625C74.9296 28.373 75.87 29.9703 77.3925 31.2539C78.915 32.5077 80.6614 33.1346 82.6317 33.1346C84.0946 33.1346 85.438 32.7914 86.6618 32.1047C87.8859 31.418 88.871 30.4776 89.6173 29.2836L92.2593 30.8061C91.2443 32.4479 89.886 33.7615 88.1843 34.7467C86.4827 35.7318 84.632 36.2244 82.6317 36.2244C80.6019 36.2244 78.7211 35.7168 76.9895 34.7019C75.2581 33.6869 73.8849 32.3136 72.8698 30.5822C71.8549 28.8508 71.3473 26.97 71.3473 24.94C71.3473 22.8801 71.8549 20.9994 72.8698 19.2977C73.8849 17.5663 75.2581 16.193 76.9895 15.178C78.7211 14.163 80.6019 13.6555 82.6317 13.6555C84.6618 13.6555 86.5425 14.163 88.2739 15.178C90.0055 16.193 91.3787 17.5663 92.3936 19.2977C93.4088 20.9994 93.9161 22.8801 93.9161 24.94C93.9161 25.2982 93.8863 25.8058 93.8265 26.4625H74.5714ZM82.6317 16.7005C81.3183 16.7005 80.0345 17.014 78.7807 17.6409C77.5268 18.238 76.5119 19.0738 75.7357 20.1485C74.9596 21.1934 74.5714 22.3278 74.5714 23.5518H90.692C90.692 22.3278 90.304 21.1934 89.5277 20.1485C88.7517 19.0738 87.7365 18.238 86.4827 17.6409C85.2589 17.014 83.9751 16.7005 82.6317 16.7005ZM108.2 16.9244C107.514 16.6259 106.827 16.4766 106.14 16.4766C104.737 16.4766 103.528 16.9841 102.513 17.9991C101.498 19.0141 100.991 20.2232 100.991 21.6263V36.0005H97.9456V21.6263C97.9456 20.0142 98.3636 18.5514 99.1994 17.2379C100.065 15.8945 101.185 14.8944 102.558 14.2377L102.647 14.1929C103.752 13.6854 104.916 13.4316 106.14 13.4316C108.051 13.4316 109.753 14.0138 111.245 15.178L108.2 16.9244Z" fill="white"/>
<mask id="mask1_110_497" style="mask-type:luminance" maskUnits="userSpaceOnUse" x="71" y="13" width="41" height="24">
<path d="M111.777 13.1631H71.0276V36.4484H111.777V13.1631Z" fill="white"/>
<path d="M74.5719 26.4625C74.9301 28.373 75.8705 29.9703 77.393 31.2539C78.9155 32.5077 80.6619 33.1346 82.6322 33.1346C84.0951 33.1346 85.4385 32.7914 86.6623 32.1047C87.8864 31.418 88.8715 30.4776 89.6178 29.2836L92.2598 30.8061C91.2448 32.4479 89.8864 33.7615 88.1848 34.7467C86.4832 35.7318 84.6325 36.2244 82.6322 36.2244C80.6023 36.2244 78.7216 35.7168 76.99 34.7019C75.2586 33.6869 73.8854 32.3136 72.8703 30.5822C71.8554 28.8508 71.3478 26.97 71.3478 24.94C71.3478 22.8801 71.8554 20.9994 72.8703 19.2977C73.8854 17.5663 75.2586 16.193 76.99 15.178C78.7216 14.163 80.6023 13.6555 82.6322 13.6555C84.6623 13.6555 86.543 14.163 88.2744 15.178C90.006 16.193 91.3792 17.5663 92.3941 19.2977C93.4092 20.9994 93.9166 22.8801 93.9166 24.94C93.9166 25.2982 93.8868 25.8058 93.827 26.4625H74.5719ZM82.6322 16.7005C81.3188 16.7005 80.035 17.014 78.7812 17.6409C77.5273 18.238 76.5124 19.0738 75.7362 20.1485C74.9601 21.1934 74.5719 22.3278 74.5719 23.5518H90.6925C90.6925 22.3278 90.3045 21.1934 89.5282 20.1485C88.7522 19.0738 87.737 18.238 86.4832 17.6409C85.2594 17.014 83.9756 16.7005 82.6322 16.7005ZM108.201 16.9244C107.514 16.6259 106.827 16.4766 106.141 16.4766C104.738 16.4766 103.529 16.9841 102.514 17.9991C101.499 19.0141 100.991 20.2232 100.991 21.6263V36.0005H97.9461V21.6263C97.9461 20.0142 98.3641 18.5514 99.1999 17.2379C100.066 15.8945 101.185 14.8944 102.558 14.2377L102.648 14.1929C103.753 13.6854 104.917 13.4316 106.141 13.4316C108.051 13.4316 109.753 14.0138 111.246 15.178L108.201 16.9244Z" fill="black"/>
</mask>
<g mask="url(#mask1_110_497)">
<path d="M74.5718 26.4618V26.2379H74.302L74.3517 26.5029L74.5718 26.4618ZM77.3929 31.2531L77.2487 31.4242L77.2507 31.426L77.3929 31.2531ZM89.6177 29.2829L89.7296 29.0887L89.5424 28.981L89.4278 29.1642L89.6177 29.2829ZM92.2597 30.8054L92.4502 30.9231L92.5715 30.7265L92.3716 30.6112L92.2597 30.8054ZM72.8702 19.297L73.0625 19.4117L73.0634 19.4103L72.8702 19.297ZM92.394 19.297L92.201 19.4103L92.2019 19.4117L92.394 19.297ZM93.8269 26.4618V26.6856H94.0316L94.0499 26.4819L93.8269 26.4618ZM78.7811 17.6402L78.8773 17.8423L78.8793 17.8414L78.8814 17.8404L78.7811 17.6402ZM75.7361 20.1478L75.9158 20.2814L75.9176 20.2789L75.7361 20.1478ZM74.5718 23.5511H74.3479V23.775H74.5718V23.5511ZM90.6924 23.5511V23.775H90.9163V23.5511H90.6924ZM89.5281 20.1478L89.3468 20.2789L89.3485 20.2813L89.5281 20.1478ZM86.4831 17.6402L86.381 17.8395L86.3839 17.8409L86.3868 17.8423L86.4831 17.6402ZM74.3517 26.5029C74.7198 28.4656 75.6877 30.1081 77.2487 31.4242L77.5373 31.0819C76.0533 29.8307 75.1405 28.2789 74.7919 26.4206L74.3517 26.5029ZM77.2507 31.426C78.8131 32.7127 80.6098 33.3578 82.6321 33.3578V32.91C80.714 32.91 79.0177 32.3012 77.5353 31.0803L77.2507 31.426ZM82.6321 33.3578C84.1315 33.3578 85.513 33.0054 86.7719 32.2992L86.5527 31.9087C85.3636 32.5757 84.0583 32.91 82.6321 32.91V33.3578ZM86.7719 32.2992C88.0287 31.5941 89.0414 30.6274 89.8075 29.4015L89.4278 29.1642C88.7015 30.3264 87.7439 31.2406 86.5527 31.9087L86.7719 32.2992ZM89.5059 29.4767L92.1479 30.9992L92.3716 30.6112L89.7296 29.0887L89.5059 29.4767ZM92.0693 30.6876C91.0741 32.2974 89.7428 33.5853 88.0726 34.552L88.2969 34.9396C90.0299 33.9363 91.4153 32.597 92.4502 30.9231L92.0693 30.6876ZM88.0726 34.552C86.4056 35.5173 84.5936 35.9998 82.6321 35.9998V36.4476C84.6709 36.4476 86.5606 35.9449 88.2969 34.9396L88.0726 34.552ZM82.6321 35.9998C80.6414 35.9998 78.7999 35.5027 77.1032 34.5079L76.8768 34.8944C78.6429 35.9297 80.5628 36.4476 82.6321 36.4476V35.9998ZM77.1032 34.5079C75.4047 33.5123 74.0591 32.1666 73.0634 30.4682L72.6772 30.6947C73.7114 32.4593 75.1123 33.86 76.8768 34.8944L77.1032 34.5079ZM73.0634 30.4682C72.0689 28.7715 71.5716 26.9299 71.5716 24.9393H71.1238C71.1238 27.0085 71.6417 28.9284 72.6772 30.6947L73.0634 30.4682ZM71.5716 24.9393C71.5716 22.9181 72.0691 21.0773 73.0625 19.4117L72.6781 19.1823C71.6414 20.92 71.1238 22.8407 71.1238 24.9393H71.5716ZM73.0634 19.4103C74.0591 17.7118 75.4047 16.3661 77.1032 15.3705L76.8768 14.9842C75.1123 16.0185 73.7114 17.4193 72.6772 19.1838L73.0634 19.4103ZM77.1032 15.3705C78.7999 14.3758 80.6414 13.8787 82.6321 13.8787V13.4309C80.5628 13.4309 78.6429 13.9488 76.8768 14.9842L77.1032 15.3705ZM82.6321 13.8787C84.6228 13.8787 86.4645 14.3758 88.1612 15.3705L88.3876 14.9842C86.6215 13.9488 84.7016 13.4309 82.6321 13.4309V13.8787ZM88.1612 15.3705C89.8595 16.3661 91.2053 17.7118 92.201 19.4103L92.5872 19.1838C91.5528 17.4193 90.1521 16.0185 88.3876 14.9842L88.1612 15.3705ZM92.2019 19.4117C93.1953 21.0773 93.6926 22.9181 93.6926 24.9393H94.1404C94.1404 22.8407 93.623 20.92 92.5863 19.1823L92.2019 19.4117ZM93.6926 24.9393C93.6926 25.2872 93.6635 25.7869 93.6039 26.4414L94.0499 26.4819C94.1099 25.823 94.1404 25.3076 94.1404 24.9393H93.6926ZM93.8269 26.2379H74.5718V26.6856H93.8269V26.2379ZM82.6321 16.4759C81.2815 16.4759 79.9637 16.7985 78.681 17.4399L78.8814 17.8404C80.1061 17.228 81.3556 16.9237 82.6321 16.9237V16.4759ZM78.6848 17.438C77.3987 18.0505 76.3538 18.9101 75.5547 20.0167L75.9176 20.2789C76.6708 19.2361 77.6557 18.424 78.8773 17.8423L78.6848 17.438ZM75.5565 20.0143C74.7534 21.0952 74.3479 22.2759 74.3479 23.5511H74.7957C74.7957 22.3783 75.1665 21.2902 75.9158 20.2814L75.5565 20.0143ZM74.5718 23.775H90.6924V23.3272H74.5718V23.775ZM90.9163 23.5511C90.9163 22.2759 90.5108 21.0952 89.7079 20.0143L89.3485 20.2813C90.0979 21.2902 90.4685 22.3783 90.4685 23.5511H90.9163ZM89.7097 20.0167C88.9104 18.9101 87.8654 18.0505 86.5794 17.438L86.3868 17.8423C87.6084 18.424 88.5936 19.2361 89.3468 20.2789L89.7097 20.0167ZM86.5852 17.4409C85.3305 16.7982 84.012 16.4759 82.6321 16.4759V16.9237C83.9392 16.9237 85.1879 17.2283 86.381 17.8395L86.5852 17.4409ZM108.2 16.9237L108.111 17.1291L108.214 17.1739L108.312 17.1179L108.2 16.9237ZM100.991 35.9998V36.2237H101.215V35.9998H100.991ZM97.946 35.9998H97.7221V36.2237H97.946V35.9998ZM99.1998 17.2372L99.0117 17.1159L99.011 17.117L99.1998 17.2372ZM102.558 14.237L102.655 14.4389L102.657 14.4381L102.658 14.4372L102.558 14.237ZM102.648 14.1922L102.554 13.9887L102.551 13.9903L102.548 13.9919L102.648 14.1922ZM111.245 15.1773L111.357 15.3715L111.646 15.2057L111.383 15.0008L111.245 15.1773ZM108.29 16.7184C107.578 16.4087 106.861 16.252 106.141 16.252V16.6998C106.794 16.6998 107.45 16.8416 108.111 17.1291L108.29 16.7184ZM106.141 16.252C104.677 16.252 103.411 16.7842 102.355 17.8401L102.672 18.1567C103.646 17.1827 104.799 16.6998 106.141 16.6998V16.252ZM102.355 17.8401C101.299 18.896 100.767 20.1616 100.767 21.6256H101.215C101.215 20.2834 101.698 19.1308 102.672 18.1567L102.355 17.8401ZM100.767 21.6256V35.9998H101.215V21.6256H100.767ZM100.991 35.7759H97.946V36.2237H100.991V35.7759ZM98.1699 35.9998V21.6256H97.7221V35.9998H98.1699ZM98.1699 21.6256C98.1699 20.0545 98.5765 18.6337 99.3888 17.3574L99.011 17.117C98.1513 18.4677 97.7221 19.9725 97.7221 21.6256H98.1699ZM99.3881 17.3585C100.232 16.0481 101.321 15.0769 102.655 14.4389L102.462 14.035C101.049 14.7105 99.8986 15.7395 99.0117 17.1159L99.3881 17.3585ZM102.658 14.4372L102.748 14.3924L102.548 13.9919L102.458 14.0367L102.658 14.4372ZM102.741 14.3956C103.816 13.9017 104.949 13.6548 106.141 13.6548V13.207C104.885 13.207 103.688 13.4676 102.554 13.9887L102.741 14.3956ZM106.141 13.6548C108.002 13.6548 109.655 14.2206 111.108 15.3539L111.383 15.0008C109.851 13.8055 108.101 13.207 106.141 13.207V13.6548ZM111.134 14.9831L108.089 16.7295L108.312 17.1179L111.357 15.3715L111.134 14.9831Z" fill="white"/>
</g>
<path d="M50.0323 5.74902H47.2963V25.9671H50.0323V5.74902Z" fill="white" stroke="white" stroke-width="0.223897"/>
</g>
<defs>
<clipPath id="clip0_110_497">
<rect width="233.077" height="45.2272" fill="white" transform="translate(0 0.576172)"/>
</clipPath>
</defs>
</svg>
